<svg width="247" height="157" viewBox="0 0 247 157" fill="none" xmlns="http://www.w3.org/2000/svg">
<g clip-path="url(#clip0_15_2)">
<path d="M121.278 78.345C121.27 69.6518 123.075 61.0524 126.577 53.0959C130.079 45.1393 135.202 38.0004 141.618 32.135C131.869 18.7878 118.148 8.8659 102.418 3.7884C86.6889 -1.2891 69.7565 -1.26202 54.0432 3.86576C38.33 8.99353 24.6409 18.9593 14.9341 32.3376C5.22726 45.7158 0 61.8212 0 78.35C0 94.8788 5.22726 110.984 14.9341 124.362C24.6409 137.741 38.33 147.706 54.0432 152.834C69.7565 157.962 86.6889 157.989 102.418 152.912C118.148 147.834 131.869 137.912 141.618 124.565C135.201 118.701 130.077 111.562 126.575 103.605C123.072 95.6485 121.269 87.0485 121.278 78.355" fill="#005581"/>
<path d="M183.958 15.685C168.282 15.6681 153.171 21.539 141.618 32.135C151.438 45.5433 156.731 61.7307 156.731 78.35C156.731 94.9693 151.438 111.157 141.618 124.565C149.132 131.448 158.211 136.396 168.068 138.979C177.925 141.561 188.263 141.702 198.187 139.387C208.111 137.072 217.32 132.373 225.018 125.696C232.715 119.019 238.668 110.566 242.361 101.068C246.055 91.5713 247.376 81.3169 246.212 71.1937C245.047 61.0705 241.432 51.384 235.679 42.9733C229.926 34.5627 222.209 27.6818 213.197 22.9267C204.184 18.1717 194.148 15.686 183.958 15.685Z" fill="#79BDE8"/>
</g>
<defs>
<clipPath id="clip0_15_2">
<rect width="246.622" height="156.7" fill="white"/>
</clipPath>
</defs>
</svg>
