<svg xmlns="http://www.w3.org/2000/svg" width="535.55" height="182.7" viewBox="0 0 535.55 182.7">
  <title>icons-export</title>

  <g id="Layer_7" data-name="Layer 7">
    <g>
      <path class="synergy_circle1" d="M140.74,91.35a62.53,62.53,0,0,1,20.34-46.21,78.35,78.35,0,1,0,0,92.43,62.5,62.5,0,0,1-20.34-46.21" fill="#fff"/>
      <path class="synergy_circle2" d="M203.42,28.69a62.54,62.54,0,0,0-42.34,16.45,78.22,78.22,0,0,1,0,92.43A62.67,62.67,0,1,0,203.42,28.69" fill="#fff" opacity="0.5"/>
      <g  class="synergy_text" fill="#fff" >
        <path d="M297.92,84.86h4v4.56c1.54.92,4.49,1.26,6.61,1.26,4.81,0,8-2.21,8-6.26,0-9-18.52-3.67-18.52-15.78,0-4.11,2.43-9.61,12.49-9.61a27.94,27.94,0,0,1,9.08,1.61v6.8h-3.76v-4.2a18.67,18.67,0,0,0-5.63-.92c-3.63,0-7.72,1.39-7.72,5.85,0,8.58,18.53,3.23,18.53,15.68C320.94,91.25,314.56,94,308,94c-5.54,0-8.25-1.3-10.12-1.7Z"/>
        <path d="M321.8,59.63h11.67v3h-3.51A10.79,10.79,0,0,1,331.09,64l8.35,11.57,8.15-11.38a12,12,0,0,1,1.3-1.55h-4.15v-3h11.1v3h-3.09L341.24,78.82l-.15,11.52h3.8v3.06H333.41V90.34h3.53l.14-11.48-11.8-16.2H321.8Z"/>
        <path d="M363.13,62.66h-4.49v-3h8.06l18.37,24.69a25.83,25.83,0,0,1,1.59,2.5h.09L387,62.66h-4.2v-3h11.38v3h-3.63l-.19,30.73H386.9L367.8,68a19,19,0,0,1-1.3-2.12h-.09l-.21,24.45h4.26v3.06H359.27V90.34h3.67Z"/>
        <polygon points="400.54 62.66 396.68 62.66 396.68 59.63 419.5 59.63 419.5 67.44 415.93 67.44 415.93 62.66 404.7 62.66 404.6 74.52 415.21 74.52 415.21 77.56 404.6 77.56 404.49 90.34 416.22 90.34 416.5 85.09 420.08 85.09 419.79 93.39 396.68 93.39 396.68 90.34 400.35 90.34 400.54 62.66"/>
        <path d="M423.55,59.63h11.29c6.07,0,12.39.92,12.39,8.67a8.77,8.77,0,0,1-7.9,9.13v.1c1.2,0,2.75,1.05,4.33,3.8l2.84,4.93c2.12,3.51,2.41,4.09,4.39,4.09h1.49v3.06h-2c-3.48,0-4.49-.4-6.32-3.25l-3.25-5.54c-3-5.12-3.74-6.17-6.74-6.17h-2.66l-.1,11.9h3.92v3.06H423.55V90.34h3.67l.19-27.67h-3.86Zm7.91,15.77h4c4.28,0,7.62-1.89,7.62-6.72s-3.53-6-8-6h-3.57Z"/>
        <path d="M478.86,92.57c-2,.86-6.49,1.39-9.68,1.39-11.1,0-18-5.6-18-17.23,0-9.45,5.46-17.71,18-17.71a28.91,28.91,0,0,1,10.23,1.79v7.62h-3.57v-5a18.29,18.29,0,0,0-7-1.11c-8.15,0-13.25,4.83-13.25,13.94s4.72,14.42,13.89,14.42a23.57,23.57,0,0,0,5.65-.73V81.7H471v-3h11.67v3h-3.76Z"/>
        <path d="M482,59.63h11.69v3h-3.54A9.53,9.53,0,0,1,491.31,64l8.35,11.57,8.16-11.38a10.72,10.72,0,0,1,1.3-1.55H505v-3H516v3H513L501.43,78.82l-.14,11.52h3.8v3.06H493.62V90.34h3.51l.15-11.48-11.82-16.2H482Z"/>
        <path d="M304.26,104.64H306l7.69,17h-2l-2-4.47h-9.18l-2,4.47h-1.95Zm4.7,10.79-3.84-8.58-3.86,8.58Z"/>
        <path d="M319.56,114.57v-9.82h1.91v9.7c0,3.63,1.95,5.67,5.16,5.67s5.1-1.87,5.1-5.56v-9.82h1.91v9.67c0,4.93-2.82,7.48-7,7.48S319.56,119.35,319.56,114.57Z"/>
        <path d="M341.51,104.76h5.86c5.31,0,9,3.64,9,8.38v.06c0,4.76-3.67,8.44-9,8.44h-5.86Zm1.91,1.76v13.37h4c4.28,0,7-2.91,7-6.65v0c0-3.74-2.71-6.68-7-6.68Z"/>
        <rect x="363.91" y="104.76" width="1.91" height="16.88"/>
        <path d="M373.38,113.24v0a8.61,8.61,0,1,1,17.22-.06v.06a8.61,8.61,0,1,1-17.22,0Zm15.26,0v0a6.72,6.72,0,0,0-6.66-7,6.63,6.63,0,0,0-6.61,6.91v.06a6.64,6.64,0,1,0,13.27,0Z"/>
        <polygon points="407.17 104.76 409.29 104.76 415.3 119.29 421.33 104.76 423.38 104.76 416.12 121.75 414.42 121.75 407.17 104.76"/>
        <rect x="430.25" y="104.76" width="1.89" height="16.88"/>
        <path d="M439.37,119.18l1.18-1.39a8.05,8.05,0,0,0,5.79,2.39c2.27,0,3.76-1.2,3.76-2.88v0c0-1.56-.84-2.46-4.39-3.21-3.88-.84-5.67-2.1-5.67-4.87v-.06c0-2.64,2.35-4.6,5.56-4.6a8.79,8.79,0,0,1,5.92,2.08l-1.11,1.47a7.4,7.4,0,0,0-4.87-1.83c-2.2,0-3.59,1.2-3.59,2.73v0c0,1.6.88,2.48,4.59,3.28s5.5,2.19,5.5,4.78v0c0,2.91-2.41,4.78-5.77,4.78A9.85,9.85,0,0,1,439.37,119.18Z"/>
        <path d="M459,114.57v-9.82h1.91v9.7c0,3.63,1.95,5.67,5.16,5.67s5.08-1.87,5.08-5.56v-9.82h1.91v9.67c0,4.93-2.83,7.48-7,7.48S459,119.35,459,114.57Z"/>
        <path d="M486.59,104.64h1.8l7.7,17H494l-2-4.47h-9.18l-2,4.47h-2Zm4.72,10.79-3.84-8.58-3.86,8.58Z"/>
        <polygon points="502.79 104.76 504.68 104.76 504.68 119.89 514.19 119.89 514.19 121.64 502.79 121.64 502.79 104.76"/>
      </g>
    </g>
  </g>
</svg>
