<?xml version="1.0" encoding="UTF-8" standalone="no"?>
<svg width="120px" height="133px" viewBox="0 0 120 133" version="1.1" xmlns="http://www.w3.org/2000/svg" xmlns:xlink="http://www.w3.org/1999/xlink">
    <!-- Generator: Sketch 49 (51002) - http://www.bohemiancoding.com/sketch -->
    <title>Shape</title>
    <desc>Created with Sketch.</desc>
    <defs></defs>
    <g id="Page-1" stroke="none" stroke-width="1" fill="none" fill-rule="evenodd">
        <g id="icon-share" fill="#A2A2A2" fill-rule="nonzero">
            <path d="M99.54,96.07 C94.493169,96.0888871 89.690197,98.2433216 86.32,102 L35.51,72.67 C36.7472958,69.1522946 36.7472958,65.3177054 35.51,61.8 L86.4,32.1 C92.829152,39.2828846 103.647919,40.4427469 111.453592,34.7859547 C119.259265,29.1291624 121.525012,18.4869168 116.700503,10.141143 C111.875994,1.79536921 101.523006,-1.5522618 92.7255397,2.38885662 C83.9280735,6.32997504 79.5340212,16.2840349 82.55,25.44 L31.63,55.14 C26.6148097,49.6481407 18.7384597,47.8061755 11.8079328,50.5044063 C4.87740599,53.2026371 0.319949989,59.8854001 0.338381773,67.3226248 C0.356813556,74.7598496 4.94733735,81.419941 11.8911531,84.0837868 C18.8349689,86.7476326 26.7020923,84.8666501 31.69,79.35 L82.49,108.65 C81.9103331,110.388941 81.6033647,112.207138 81.58,114.04 C81.58,123.981125 89.6388745,132.04 99.58,132.04 C109.521125,132.04 117.58,123.981125 117.58,114.04 C117.58,104.098875 109.521125,96.04 99.58,96.04 L99.54,96.07 Z" id="Shape"></path>
        </g>
    </g>
</svg>